<svg width="192" height="14" viewBox="0 0 192 14" fill="none" xmlns="http://www.w3.org/2000/svg">
<path d="M7.54933 2.67399C7.54933 3.36264 7.32056 3.93162 6.86303 4.38095C6.40549 4.83028 5.78553 5.116 5.00315 5.2381V5.28205C5.92279 5.37973 6.62739 5.65079 7.11696 6.09524C7.6111 6.53968 7.85816 7.11844 7.85816 7.8315C7.85816 8.81807 7.48299 9.59707 6.73263 10.1685C5.98685 10.7399 4.95282 11.0256 3.63054 11.0256C2.15728 11.0256 0.97455 10.8327 0.0823563 10.4469V8.54212C0.512439 8.7619 1.01573 8.93529 1.59222 9.06227C2.17329 9.18437 2.71547 9.24542 3.21876 9.24542C4.90706 9.24542 5.75122 8.72039 5.75122 7.67033C5.75122 7.19658 5.47898 6.83272 4.93452 6.57875C4.39462 6.32479 3.59394 6.1978 2.53246 6.1978H1.59222V4.42491H2.43637C3.49786 4.42491 4.27109 4.31746 4.75608 4.10256C5.24106 3.88767 5.48356 3.53114 5.48356 3.03297C5.48356 2.66667 5.33028 2.37607 5.02373 2.16117C4.72176 1.94139 4.26651 1.8315 3.65799 1.8315C2.71547 1.8315 1.80498 2.1221 0.926508 2.7033L0 1.18681C0.571919 0.781441 1.17815 0.485958 1.8187 0.300366C2.45925 0.10989 3.17072 0.014652 3.9531 0.014652C5.04661 0.014652 5.91822 0.258852 6.56792 0.747253C7.22219 1.23565 7.54933 1.8779 7.54933 2.67399Z" fill="#F1F1F1"/>
<path d="M15.8742 10.8791L15.1467 8.32967H11.4887L10.7612 10.8791H8.46897L12.0103 0.124542H14.6114L18.1664 10.8791H15.8742ZM14.6388 6.42491C13.9663 4.11477 13.5865 2.8083 13.4996 2.50549C13.4172 2.20269 13.3577 1.96337 13.3211 1.78755C13.1701 2.4127 12.7378 3.95849 12.024 6.42491H14.6388Z" fill="#F1F1F1"/>
<path d="M27.3766 10.8791H25.2559V2.05861H21.5636V10.8791H19.4361V0.168498H27.3766V10.8791Z" fill="#F1F1F1"/>
<path d="M32.0366 5.20879H32.7366C33.3909 5.20879 33.8805 5.07204 34.2053 4.79853C34.5302 4.52015 34.6926 4.11722 34.6926 3.58974C34.6926 3.05739 34.5553 2.66422 34.2808 2.41026C34.0109 2.15629 33.5854 2.0293 33.0043 2.0293H32.0366V5.20879ZM36.8407 3.50916C36.8407 4.66178 36.5021 5.54335 35.825 6.15385C35.1524 6.76435 34.1939 7.0696 32.9494 7.0696H32.0366V10.8791H29.9091V0.168498H33.1141C34.3311 0.168498 35.2554 0.449328 35.8868 1.01099C36.5227 1.56777 36.8407 2.40049 36.8407 3.50916Z" fill="#F1F1F1"/>
<path d="M44.8773 10.8791L44.1498 8.32967H40.4919L39.7644 10.8791H37.4721L41.0134 0.124542H43.6145L47.1696 10.8791H44.8773ZM43.642 6.42491C42.9694 4.11477 42.5896 2.8083 42.5027 2.50549C42.4204 2.20269 42.3609 1.96337 42.3243 1.78755C42.1733 2.4127 41.7409 3.95849 41.0272 6.42491H43.642Z" fill="#F1F1F1"/>
<path d="M48.4392 0.168498H51.5619C52.9848 0.168498 54.0166 0.385836 54.6571 0.820513C55.3023 1.25031 55.6248 1.93651 55.6248 2.87912C55.6248 3.51893 55.483 4.04396 55.1993 4.45421C54.9202 4.86447 54.5473 5.11111 54.0806 5.19414V5.2674C54.7166 5.4188 55.1741 5.70208 55.4532 6.11722C55.7369 6.53236 55.8788 7.08425 55.8788 7.77289C55.8788 8.74969 55.547 9.5116 54.8836 10.0586C54.2248 10.6056 53.328 10.8791 52.1933 10.8791H48.4392V0.168498ZM50.5668 4.41026H51.8021C52.3786 4.41026 52.795 4.31502 53.0512 4.12454C53.312 3.93407 53.4424 3.61905 53.4424 3.17949C53.4424 2.76923 53.3005 2.47619 53.0169 2.30037C52.7378 2.11966 52.294 2.0293 51.6854 2.0293H50.5668V4.41026ZM50.5668 6.21245V9.00366H51.9531C52.5387 9.00366 52.9711 8.884 53.2502 8.64469C53.5293 8.40537 53.6689 8.03907 53.6689 7.54579C53.6689 6.6569 53.0741 6.21245 51.8845 6.21245H50.5668Z" fill="#F1F1F1"/>
<path d="M66.0635 10.8791H63.6477L60.0103 5.45055V10.8791H57.8828V0.168498H60.0103V5.35531L63.6065 0.168498H65.8713L62.2133 5.31136L66.0635 10.8791Z" fill="#F1F1F1"/>
<path d="M73.4687 10.8791L72.7412 8.32967H69.0832L68.3557 10.8791H66.0635L69.6048 0.124542H72.2059L75.7609 10.8791H73.4687ZM72.2333 6.42491C71.5608 4.11477 71.181 2.8083 71.0941 2.50549C71.0117 2.20269 70.9522 1.96337 70.9156 1.78755C70.7647 2.4127 70.3323 3.95849 69.6185 6.42491H72.2333Z" fill="#F1F1F1"/>
<path d="M87.0232 0.168498V2.04396H82.8093V10.8791H80.6817V0.168498H87.0232Z" fill="#F1F1F1"/>
<path d="M94.7166 10.8791L93.9891 8.32967H90.3311L89.6037 10.8791H87.3114L90.8527 0.124542H93.4538L97.0089 10.8791H94.7166ZM93.4813 6.42491C92.8087 4.11477 92.4289 2.8083 92.342 2.50549C92.2597 2.20269 92.2002 1.96337 92.1636 1.78755C92.0126 2.4127 91.5802 3.95849 90.8665 6.42491H93.4813Z" fill="#F1F1F1"/>
<path d="M105.21 2.67399C105.21 3.36264 104.981 3.93162 104.524 4.38095C104.066 4.83028 103.446 5.116 102.664 5.2381V5.28205C103.584 5.37973 104.288 5.65079 104.778 6.09524C105.272 6.53968 105.519 7.11844 105.519 7.8315C105.519 8.81807 105.144 9.59707 104.393 10.1685C103.648 10.7399 102.614 11.0256 101.291 11.0256C99.8181 11.0256 98.6354 10.8327 97.7432 10.4469V8.54212C98.1733 8.7619 98.6766 8.93529 99.2531 9.06227C99.8341 9.18437 100.376 9.24542 100.88 9.24542C102.568 9.24542 103.412 8.72039 103.412 7.67033C103.412 7.19658 103.14 6.83272 102.595 6.57875C102.055 6.32479 101.255 6.1978 100.193 6.1978H99.2531V4.42491H100.097C101.159 4.42491 101.932 4.31746 102.417 4.10256C102.902 3.88767 103.144 3.53114 103.144 3.03297C103.144 2.66667 102.991 2.37607 102.685 2.16117C102.383 1.94139 101.927 1.8315 101.319 1.8315C100.376 1.8315 99.4658 2.1221 98.5874 2.7033L97.6609 1.18681C98.2328 0.781441 98.839 0.485958 99.4796 0.300366C100.12 0.10989 100.832 0.014652 101.614 0.014652C102.707 0.014652 103.579 0.258852 104.229 0.747253C104.883 1.23565 105.21 1.8779 105.21 2.67399Z" fill="#F1F1F1"/>
<path d="M113.734 0.168498V2.04396H109.52V10.8791H107.393V0.168498H113.734Z" fill="#F1F1F1"/>
<path d="M124.392 5.50916C124.392 7.28205 123.981 8.64469 123.157 9.59707C122.333 10.5495 121.153 11.0256 119.616 11.0256C118.078 11.0256 116.898 10.5495 116.074 9.59707C115.251 8.64469 114.839 7.27717 114.839 5.49451C114.839 3.71184 115.251 2.35165 116.074 1.41392C116.902 0.471306 118.088 0 119.629 0C121.171 0 122.349 0.473749 123.164 1.42125C123.983 2.36874 124.392 3.73138 124.392 5.50916ZM117.069 5.50916C117.069 6.70574 117.282 7.60684 117.708 8.21245C118.133 8.81807 118.769 9.12088 119.616 9.12088C121.313 9.12088 122.162 7.91697 122.162 5.50916C122.162 3.09646 121.318 1.89011 119.629 1.89011C118.783 1.89011 118.145 2.19536 117.715 2.80586C117.285 3.41148 117.069 4.31258 117.069 5.50916Z" fill="#F1F1F1"/>
<path d="M134.412 10.8791H132.292V2.05861H129.835L129.725 3.04029C129.441 5.53602 129.19 7.28938 128.97 8.30037C128.755 9.30647 128.439 10.0147 128.023 10.4249C127.607 10.8352 127.044 11.0354 126.335 11.0256C125.95 11.0256 125.612 10.9719 125.319 10.8645V9.00366C125.584 9.10134 125.834 9.15018 126.067 9.15018C126.309 9.15018 126.502 9.03297 126.643 8.79853C126.785 8.55922 126.918 8.11966 127.041 7.47985C127.17 6.83516 127.337 5.78266 127.542 4.32234C127.753 2.85714 127.931 1.47253 128.078 0.168498H134.412V10.8791Z" fill="#F1F1F1"/>
<path d="M144.014 7.53114C144.014 9.76313 142.632 10.8791 139.868 10.8791H136.945V0.168498H139.072V4.27839H139.91C141.218 4.27839 142.229 4.56166 142.943 5.12821C143.657 5.69475 144.014 6.49573 144.014 7.53114ZM139.072 9.01832H139.786C140.504 9.01832 141.031 8.89621 141.365 8.65201C141.699 8.40293 141.866 8.0293 141.866 7.53114C141.866 7.03785 141.696 6.68376 141.358 6.46886C141.019 6.24908 140.438 6.13919 139.615 6.13919H139.072V9.01832Z" fill="#F1F1F1"/>
<path d="M144.727 8.98901H145.503C146.166 7.57265 146.69 6.15873 147.075 4.74725C147.459 3.33089 147.745 1.80464 147.933 0.168498H153.78V8.98901H155.118V14H153.066V10.8791H146.78V14H144.727V8.98901ZM149.621 2.05861C149.474 3.17705 149.23 4.36142 148.886 5.61172C148.548 6.86203 148.166 7.98779 147.74 8.98901H151.659V2.05861H149.621Z" fill="#F1F1F1"/>
<path d="M162.448 10.8791H156.669V0.168498H162.448V2.0293H158.797V4.38095H162.194V6.24176H158.797V9.00366H162.448V10.8791Z" fill="#F1F1F1"/>
<path d="M166.675 5.20879H167.375C168.03 5.20879 168.519 5.07204 168.844 4.79853C169.169 4.52015 169.331 4.11722 169.331 3.58974C169.331 3.05739 169.194 2.66422 168.92 2.41026C168.65 2.15629 168.224 2.0293 167.643 2.0293H166.675V5.20879ZM171.48 3.50916C171.48 4.66178 171.141 5.54335 170.464 6.15385C169.791 6.76435 168.833 7.0696 167.588 7.0696H166.675V10.8791H164.548V0.168498H167.753C168.97 0.168498 169.894 0.449328 170.526 1.01099C171.162 1.56777 171.48 2.40049 171.48 3.50916Z" fill="#F1F1F1"/>
<path d="M182.481 5.50916C182.481 7.28205 182.069 8.64469 181.246 9.59707C180.422 10.5495 179.242 11.0256 177.704 11.0256C176.167 11.0256 174.987 10.5495 174.163 9.59707C173.339 8.64469 172.928 7.27717 172.928 5.49451C172.928 3.71184 173.339 2.35165 174.163 1.41392C174.991 0.471306 176.176 0 177.718 0C179.26 0 180.438 0.473749 181.253 1.42125C182.071 2.36874 182.481 3.73138 182.481 5.50916ZM175.158 5.50916C175.158 6.70574 175.371 7.60684 175.796 8.21245C176.222 8.81807 176.858 9.12088 177.704 9.12088C179.402 9.12088 180.251 7.91697 180.251 5.50916C180.251 3.09646 179.406 1.89011 177.718 1.89011C176.872 1.89011 176.233 2.19536 175.803 2.80586C175.373 3.41148 175.158 4.31258 175.158 5.50916Z" fill="#F1F1F1"/>
<path d="M184.56 0.168498H187.683C189.106 0.168498 190.138 0.385836 190.778 0.820513C191.424 1.25031 191.746 1.93651 191.746 2.87912C191.746 3.51893 191.604 4.04396 191.321 4.45421C191.041 4.86447 190.669 5.11111 190.202 5.19414V5.2674C190.838 5.4188 191.295 5.70208 191.574 6.11722C191.858 6.53236 192 7.08425 192 7.77289C192 8.74969 191.668 9.5116 191.005 10.0586C190.346 10.6056 189.449 10.8791 188.315 10.8791H184.56V0.168498ZM186.688 4.41026H187.923C188.5 4.41026 188.916 4.31502 189.172 4.12454C189.433 3.93407 189.564 3.61905 189.564 3.17949C189.564 2.76923 189.422 2.47619 189.138 2.30037C188.859 2.11966 188.415 2.0293 187.807 2.0293H186.688V4.41026ZM186.688 6.21245V9.00366H188.074C188.66 9.00366 189.092 8.884 189.371 8.64469C189.651 8.40537 189.79 8.03907 189.79 7.54579C189.79 6.6569 189.195 6.21245 188.006 6.21245H186.688Z" fill="#F1F1F1"/>
</svg>
